# xmcd CD database file
#
# Track frame offsets:
#	150
#	12660
#	28891
#	48488
#	64414
#	80918
#	100511
#	117760
#	130774
#	147573
#	162639
#
# Disc length: 2305 seconds
#
# Revision: 0
# Processed by: cddbd v1.5.1PL0 Copyright (c) Steve Scherf et al.
# Submitted via: CDex 1.51
#
DISCID=a208ff0b
DTITLE=Elin Gårdestig - Heavenly peace
DYEAR=2004
DGENRE=Jazz
TTITLE0=Spegeln
TTITLE1=Why do You worry
TTITLE2=Don´t have to cry
TTITLE3=I love you, my friend
TTITLE4=Take it cool
TTITLE5=Heavenly peace
TTITLE6=Jag vet vart jag är på väg
TTITLE7=I´m home soon
TTITLE8=How is it gonna be?
TTITLE9=Ready
TTITLE10=Han kommer
EXTD=YEAR: 2004
EXTT0=
EXTT1=
EXTT2=
EXTT3=
EXTT4=
EXTT5=
EXTT6=
EXTT7=
EXTT8=
EXTT9=
EXTT10=
PLAYORDER=
